<svg id="svg" xmlns="http://www.w3.org/2000/svg" xmlns:xlink="http://www.w3.org/1999/xlink" width="400" height="400" viewBox="0, 0, 400,400"><g id="svgg"><path id="path0" d="M20.343 0.616 C 11.964 2.591,3.101 11.459,0.775 20.195 C -0.363 24.468,-0.363 375.532,0.775 379.805 C 2.719 387.107,8.524 393.942,15.863 397.569 L 20.220 399.722 111.915 399.869 L 203.611 400.016 203.469 313.627 L 203.326 227.238 185.691 227.091 L 168.056 226.944 167.912 197.536 C 167.798 174.382,167.917 168.030,168.467 167.671 C 168.852 167.420,176.792 167.237,186.111 167.265 L 203.056 167.316 203.431 144.352 C 203.785 122.687,204.203 115.524,205.529 108.333 C 207.035 100.169,208.342 95.981,211.756 88.378 C 218.434 73.510,234.000 61.591,252.361 57.285 C 264.479 54.444,267.521 54.245,299.444 54.204 L 328.611 54.167 328.755 84.028 L 328.899 113.889 311.989 113.889 C 275.465 113.889,274.598 114.833,275.106 154.070 L 275.278 167.306 301.667 167.261 C 329.276 167.215,329.833 167.264,329.225 169.686 C 328.879 171.066,328.508 174.286,327.204 187.222 C 326.912 190.125,326.421 194.750,326.114 197.500 C 325.806 200.250,325.312 204.875,325.015 207.778 C 323.662 221.023,323.417 223.185,323.048 225.139 L 322.654 227.222 298.827 227.222 L 275.000 227.222 275.000 313.625 L 275.000 400.027 327.390 399.875 L 379.781 399.722 384.137 397.569 C 389.989 394.677,394.677 389.989,397.569 384.137 L 399.722 379.780 399.722 200.000 L 399.722 20.220 397.569 15.863 C 394.677 10.011,389.989 5.323,384.137 2.431 L 379.780 0.278 201.140 0.193 C 94.684 0.142,21.628 0.313,20.343 0.616 " stroke="none" fill="#000000" fill-rule="evenodd"></path></g></svg>